<svg version="1.1" id="Layer_1" xmlns="http://www.w3.org/2000/svg" viewBox="0 0 74 39.1" width="74" height="39" style="enable-background:new 0 0 74 39.1;"> <g> <path d="M63.1,5.6C56.1,2,46.8,0,37,0c-9.8,0-19.1,2-26.1,5.6c-7.1,3.7-11.1,8.6-11.1,14c0,5.3,3.9,10.3,11.1,14 c7,3.6,16.2,5.6,26.1,5.6c9.8,0,19.1-2,26.1-5.6c7.1-3.7,11.1-8.6,11.1-14C74.2,14.2,70.2,9.3,63.1,5.6z M37,38.3 c-20.1,0-36.4-8.4-36.4-18.7C0.6,9.2,16.9,0.8,37,0.8s36.4,8.4,36.4,18.7C73.4,29.9,57.1,38.3,37,38.3z"/><path d="M14.6,19.3L12.9,19c-1-0.2-1.6-0.5-1.6-1.4c0-1,0.7-1.6,2-1.6c1.5,0,2.4,0.8,2.4,2.3l1.1-0.1c0-2-1.3-3.2-3.6-3.2 c-2,0-3.2,1.1-3.2,2.6c0,1.4,0.9,2.1,2.2,2.4l1.8,0.3c1.2,0.2,1.7,0.6,1.7,1.5c0,1-0.8,1.6-2.2,1.6c-1.5,0-2.6-0.8-2.7-2.5 L9.8,21c0,2.2,1.6,3.4,3.8,3.4c1.9,0,3.4-1,3.4-2.6C17,20.3,16.2,19.6,14.6,19.3z"/><path d="M23.1,16.1c1.9,0,2.9,1.2,3,2.9l1.2-0.1c-0.2-2.3-1.6-3.9-4.2-3.9c-2.5,0-4.4,1.9-4.4,4.7c0,2.8,1.9,4.7,4.4,4.7 c2.6,0,4-1.6,4.2-3.9l-1.2-0.1c-0.1,1.7-1.1,2.9-3,2.9c-1.8,0-3.1-1.4-3.1-3.6C20,17.5,21.3,16.1,23.1,16.1z"/><path d="M34.3,20.1c1.1-0.1,2-0.9,2-2.2c0-1.6-1.1-2.7-3.4-2.7h-3.7v9h1.2v-3.6h2.5c1.2,0,1.7,0.7,1.8,1.7c0.1,1.1,0.2,1.7,0.4,2 h1.3c-0.3-0.3-0.3-0.8-0.5-2.2C35.9,21,35.4,20.3,34.3,20.1z M32.9,19.6h-2.4v-3.4h2.4c1.5,0,2.2,0.7,2.2,1.7 C35.1,19,34.4,19.6,32.9,19.6z"/><path d="M42.5,15c-2.6,0-4.5,1.9-4.5,4.7c0,2.8,1.8,4.7,4.5,4.7c2.6,0,4.5-1.9,4.5-4.7C47,16.9,45.1,15,42.5,15z M42.5,23.3 c-1.9,0-3.2-1.4-3.2-3.6s1.3-3.6,3.2-3.6c1.9,0,3.2,1.4,3.2,3.6S44.4,23.3,42.5,23.3z"/><polygon points="50.2,15.2 49,15.2 49,24.2 55.2,24.2 55.2,23.2 50.2,23.2 			"/><polygon points="58.4,15.2 57.2,15.2 57.2,24.2 63.4,24.2 63.4,23.2 58.4,23.2 			"/></g></svg>