<svg xmlns="http://www.w3.org/2000/svg" width="10.969" height="16" viewBox="0 0 10.969 16">
<defs>
    <style>
      .cls-1 {
        fill-rule: evenodd;
      }
    </style>
  </defs>
  <path id="Kształt_1" data-name="Kształt 1" class="cls-1" d="M728.513,729a0.748,0.748,0,0,0,.378-0.133l4.905-4a0.5,0.5,0,0,0,.046-0.756,0.6,0.6,0,0,0-.8-0.044l-3.949,3.225V713.534a0.579,0.579,0,0,0-1.154,0v13.758l-3.949-3.225a0.59,0.59,0,0,0-.81.069,0.477,0.477,0,0,0,.053.731l4.9,4A0.6,0.6,0,0,0,728.513,729Z" transform="translate(-723.031 -713)"/>
</svg>
