<svg xmlns="http://www.w3.org/2000/svg" width="16" height="11.03" viewBox="0 0 16 11.03">
<defs>
    <style>
      .cls-1 {
        fill-rule: evenodd;
      }
    </style>
  </defs>
  <path id="Kształt_1" data-name="Kształt 1" class="cls-1" d="M992,3795.5a0.808,0.808,0,0,0-.133-0.38l-4-4.92a0.5,0.5,0,0,0-.756-0.04,0.593,0.593,0,0,0-.044.8l3.225,3.96H976.533a0.582,0.582,0,0,0,0,1.16h13.759l-3.225,3.96a0.589,0.589,0,0,0,.069.81,0.474,0.474,0,0,0,.731-0.05l4-4.92A0.588,0.588,0,0,0,992,3795.5Z" transform="translate(-976 -3790)"/>
</svg>
