<svg xmlns="http://www.w3.org/2000/svg" width="93.924" height="45.89" viewBox="0 0 93.924 45.89"><g transform="translate(-1171 -1118)"><path d="M95.5,43.737c-.848-.91-20.951-22.147-46.214-22.147S3.915,42.84,3.068,43.737l-.748.8.748.8c.848.9,20.951,22.147,46.214,22.147S94.649,46.23,95.5,45.32l.748-.8Zm-89.924.8C8.664,41.494,20.492,30.589,35.822,25.99a22.882,22.882,0,0,0-.012,37.091C20.492,58.469,8.651,47.576,5.573,44.535ZM49.282,23.921A20.614,20.614,0,1,1,28.668,44.535,20.638,20.638,0,0,1,49.282,23.921Zm13.473,39.16A22.87,22.87,0,0,0,62.768,26c15.305,4.6,27.145,15.492,30.224,18.533C89.913,47.576,78.085,58.482,62.755,63.081Z" transform="translate(1168.68 1096.41)" fill="#1d1d1b"/><path d="M41.527,49.245A7.727,7.727,0,1,0,33.8,41.517,7.734,7.734,0,0,0,41.527,49.245Zm0-13.1a5.384,5.384,0,1,1-5.384,5.384A5.394,5.394,0,0,1,41.527,36.146Z" transform="translate(1176.435 1099.415)" fill="#1d1d1b"/></g></svg>