<svg xmlns="http://www.w3.org/2000/svg" width="32.384" height="42.386" viewBox="0 0 32.384 42.386">
  <g id="Group_3462" data-name="Group 3462" transform="translate(-16.6 -9.357)">
    <path id="Path_4165" data-name="Path 4165" d="M40.392,30.392c6.412-4.79,6.905-14.4,6.924-14.808a.649.649,0,0,0-.493-.657,18.507,18.507,0,0,0-8.944-.232,16.938,16.938,0,0,0-6.53-5.144.646.646,0,0,0-.505.021,14.784,14.784,0,0,0-5.8,5.2,11.962,11.962,0,0,0-7.767-.5.648.648,0,0,0-.472.558c-.011.115-1.059,11.654,9.809,17.386h.006c.017.008.034.012.05.019a.713.713,0,0,0,.094.037h0a23.529,23.529,0,0,0,4.148.664c.172,2.485.386,13.2-8.148,17.424a.647.647,0,1,0,.574,1.161c9.077-4.491,9.048-15.61,8.872-18.546A13.437,13.437,0,0,0,40.392,30.392Zm-.775-1.037c-3.005,2.245-6.932,2.865-11.677,1.858,1.593-2.5,7.452-10.514,17.165-10.637C44.263,23.517,42.664,27.079,39.617,29.356Zm6.363-13.3a25.612,25.612,0,0,1-.536,3.225c-8.906-.057-14.8,6.062-17.464,9.606.638-3.128,2.234-8.133,6.147-11.029C37.191,15.6,41.179,14.989,45.98,16.06ZM31.154,10.867a15.7,15.7,0,0,1,5.389,4.241,12.666,12.666,0,0,0-3.192,1.716,13.85,13.85,0,0,0-2.258,2.113,18.469,18.469,0,0,0-4.864-3.631A13.631,13.631,0,0,1,31.154,10.867ZM18.066,15.409c6.041-1.393,10.912,3.185,12.212,4.559a23.85,23.85,0,0,0-3.9,10.632A16.873,16.873,0,0,1,18.066,15.409Z" stroke="#000" stroke-width="0.3"/>
    <path id="Path_4166" data-name="Path 4166" d="M57.181,55.548a.647.647,0,0,0-.392-.424c-.4-.151-9.683-3.6-12.914,2.736a.647.647,0,0,0,.1.727,7.811,7.811,0,0,0,5.387,2.4c.1,0,.2,0,.309-.007,2.607-.121,5.1-1.758,7.413-4.863A.648.648,0,0,0,57.181,55.548ZM49.62,59.684a6.388,6.388,0,0,1-4.359-1.651c2.36-3.8,8.056-2.6,10.218-1.972C53.585,58.367,51.617,59.585,49.62,59.684Z" transform="translate(-8.376 -13.803)" fill="#1d1d1b" stroke="#000" stroke-width="0.3"/>
  </g>
</svg>
