<svg xmlns="http://www.w3.org/2000/svg"  viewBox="0 0 28.156 28">
<defs>
  </defs>
  <path class="icon grid-icon" d="M99.817,46h-7.86a2.177,2.177,0,0,1-2.183-2.17V36.015a2.177,2.177,0,0,1,2.183-2.171h7.86A2.176,2.176,0,0,1,102,36.015v7.814A2.176,2.176,0,0,1,99.817,46Zm0-15.845h-7.86a2.177,2.177,0,0,1-2.183-2.171V20.171A2.177,2.177,0,0,1,91.957,18h7.86A2.176,2.176,0,0,1,102,20.171v7.814A2.176,2.176,0,0,1,99.817,30.155ZM83.879,46H76.02a2.177,2.177,0,0,1-2.183-2.17V36.015a2.177,2.177,0,0,1,2.183-2.171h7.859a2.177,2.177,0,0,1,2.183,2.171v7.814A2.177,2.177,0,0,1,83.879,46Zm0-15.845H76.02a2.177,2.177,0,0,1-2.183-2.171V20.171A2.177,2.177,0,0,1,76.02,18h7.859a2.177,2.177,0,0,1,2.183,2.171v7.814A2.177,2.177,0,0,1,83.879,30.155Z" transform="translate(-73.844 -18)"/>
</svg>
