<svg xmlns="http://www.w3.org/2000/svg"  viewBox="0 0 34 23.438">
<defs>
  </defs>
  <path d="M1482.34,273.559h28.32c1.57,0,2.84-.959,2.84-2.142s-1.27-2.143-2.84-2.143h-28.32c-1.57,0-2.84.959-2.84,2.143S1480.77,273.559,1482.34,273.559Zm28.32,5.3h-28.32c-1.57,0-2.84.959-2.84,2.143s1.27,2.142,2.84,2.142h28.32c1.57,0,2.84-.959,2.84-2.142S1512.23,278.857,1510.66,278.857Zm0,9.585h-28.32c-1.57,0-2.84.958-2.84,2.142s1.27,2.142,2.84,2.142h28.32c1.57,0,2.84-.959,2.84-2.142S1512.23,288.442,1510.66,288.442Z" transform="translate(-1479.5 -269.281)"/>
</svg>
