<svg xmlns="http://www.w3.org/2000/svg" viewBox="0 0 28.156 28">
<defs>
  </defs>
  <path class="icon list-icon" d="M53.98,46h-23.8A2.177,2.177,0,0,1,28,43.829V40.356a2.177,2.177,0,0,1,2.183-2.171h23.8a2.177,2.177,0,0,1,2.183,2.171v3.473A2.177,2.177,0,0,1,53.98,46Zm0-10.2h-23.8A2.177,2.177,0,0,1,28,33.628V30.155a2.177,2.177,0,0,1,2.183-2.171h23.8a2.177,2.177,0,0,1,2.183,2.171v3.473A2.177,2.177,0,0,1,53.98,35.8Zm0-9.984h-23.8A2.177,2.177,0,0,1,28,23.643V20.171A2.177,2.177,0,0,1,30.183,18h23.8a2.177,2.177,0,0,1,2.183,2.171v3.473A2.177,2.177,0,0,1,53.98,25.814Z" transform="translate(-28 -18)"/>
</svg>
