<svg xmlns="http://www.w3.org/2000/svg" width="29.532" height="50.971" viewBox="0 0 29.532 50.971"><g transform="translate(-25.405 -16.653)"><path d="M33.463,67.237a9.887,9.887,0,0,0-.623-6.229c-1.523-3.367-5.527-5.893-6.154-9.619a41.528,41.528,0,0,1-.51-8.113c.04-1.36.137-2.717.28-4.071.142-1.326.377-3.115,1.858-3.637a13.245,13.245,0,0,1,3.12-.233l3.4-.24a7.892,7.892,0,0,1,1.991.028,2.362,2.362,0,0,1,1.722,3.635,3.884,3.884,0,0,1-2.3,1.555,11.561,11.561,0,0,1-2.823.283c.217,2,.5,3.974.778,5.962,0,0,5.586,2.414,8.343,5.1" transform="translate(0 0.219)" fill="none" stroke="#000" stroke-miterlimit="10" stroke-width="1.5"/><path d="M36.618,35.487V21.127s.038-3.724-2.257-3.724-3.19,1.38-3.19,2.9V35.487" transform="translate(0.062)" fill="none" stroke="#000" stroke-miterlimit="10" stroke-width="1.5"/><path d="M49.046,34.56c-.032-1.953-.505-4.168-2.611-4.85a3.531,3.531,0,0,0-3.256.61c-1.47,1.2-1.333,3.251-1.54,4.96-.192,1.584-.321,3.148-.429,4.747-.119,1.764-.821,3.45-2.81,3.469-1.839.017-2.706-1.465-2.99-3.087" transform="translate(0.115 0.151)" fill="none" stroke="#000" stroke-miterlimit="10" stroke-width="1.5"/><path d="M36.549,29.516c2.335-1.253,4.928-1.517,6.621.871" transform="translate(0.129 0.139)" fill="none" stroke="#000" stroke-miterlimit="10" stroke-width="1.5"/><path d="M39.82,59.68c4.312.434,8.511-.019,11.53-3.507,2.693-3.111,2.68-6.947,2.667-10.816q-.017-4.8-.04-9.592-.024-5.179-.05-10.356c-.005-1.062-.093-2.292-1.226-2.762-2.7-1.117-3.45,2.751-3.532,4.474-.138,2.907-.177,7.527-.177,7.527a4.335,4.335,0,0,0-1.586,1.922c-1.26,2.631.463,9.819-4.094,9.846-2.118.012-2.823-1.85-2.935-3.635" transform="translate(0.17 0.063)" fill="none" stroke="#000" stroke-miterlimit="10" stroke-width="1.5"/><path d="M48.269,66.973s.638-5.295,1.59-9.679" transform="translate(0.275 0.496)" fill="none" stroke="#000" stroke-miterlimit="10" stroke-width="1.5"/></g></svg>