<svg xmlns="http://www.w3.org/2000/svg" width="36.573" height="30.833" viewBox="0 0 36.573 30.833"><g transform="translate(-19.007 -34.625)"><g transform="translate(19.207 34.826)"><path d="M37.3,65.175,21.741,49.618A8.668,8.668,0,1,1,34,37.361l3.3,3.3,3.3-3.3a8.668,8.668,0,0,1,12.26,12.256ZM27.871,36.457A7.033,7.033,0,0,0,22.9,48.465l14.4,14.4,14.4-14.4a7.036,7.036,0,1,0-9.951-9.95L37.3,42.968l-4.453-4.453A7.016,7.016,0,0,0,27.871,36.457Z" transform="translate(-19.207 -34.826)" stroke="#000" stroke-width="0.4"/></g></g></svg>