<svg xmlns="http://www.w3.org/2000/svg" width="56" height="42" viewBox="0 0 56 42">
  <metadata><?xpacket begin="﻿" id="W5M0MpCehiHzreSzNTczkc9d"?>
<x:xmpmeta xmlns:x="adobe:ns:meta/" x:xmptk="Adobe XMP Core 5.6-c142 79.160924, 2017/07/13-01:06:39        ">
   <rdf:RDF xmlns:rdf="http://www.w3.org/1999/02/22-rdf-syntax-ns#">
      <rdf:Description rdf:about=""/>
   </rdf:RDF>
</x:xmpmeta>
                                                                                                    
                                                                                                    
                                                                                                    
                                                                                                    
                                                                                                    
                                                                                                    
                                                                                                    
                                                                                                    
                                                                                                    
                                                                                                    
                                                                                                    
                                                                                                    
                                                                                                    
                                                                                                    
                                                                                                    
                                                                                                    
                                                                                                    
                                                                                                    
                                                                                                    
                                                                                                    
                           
<?xpacket end="w"?></metadata>
<defs>
    <style>
      .cls-1 {
        fill: #3f92d3;
        fill-rule: evenodd;
      }
    </style>
  </defs>
  <path id="mail" class="cls-1" d="M819.151,4079h-42.3a6.807,6.807,0,0,1-6.848-6.75v-28.5a6.807,6.807,0,0,1,6.848-6.75h42.315a6.8,6.8,0,0,1,6.836,6.76v28.49A6.807,6.807,0,0,1,819.151,4079Zm3.72-6.75v-28.49a3.7,3.7,0,0,0-3.72-3.67h-42.3a3.7,3.7,0,0,0-3.72,3.67v28.49a3.7,3.7,0,0,0,3.72,3.67h42.315a3.7,3.7,0,0,0,3.719-3.67h-0.011Zm-3.743.45a1.572,1.572,0,0,1-1.135.48,1.554,1.554,0,0,1-1.078-.43l-13.927-13.04-3.905,3.45a1.575,1.575,0,0,1-2.086.01l-3.8-3.34-14.009,12.91a1.55,1.55,0,0,1-1.066.41,1.61,1.61,0,0,1-1.147-.49,1.53,1.53,0,0,1,.07-2.18l13.8-12.73-13.858-12.21a1.523,1.523,0,0,1-.128-2.18,1.579,1.579,0,0,1,2.213-.13l14.994,13.23a2.475,2.475,0,0,1,.255.21,0.049,0.049,0,0,0,.023.04l3.685,3.24,18.886-16.7a1.577,1.577,0,0,1,2.213.11,1.531,1.531,0,0,1-.116,2.18l-13.695,12.11,13.753,12.86A1.542,1.542,0,0,1,819.128,4072.7Z" transform="translate(-770 -4037)"/>
</svg>
