<svg xmlns="http://www.w3.org/2000/svg" width="50" height="50" viewBox="0 0 50 50">
  <metadata><?xpacket begin="﻿" id="W5M0MpCehiHzreSzNTczkc9d"?>
<x:xmpmeta xmlns:x="adobe:ns:meta/" x:xmptk="Adobe XMP Core 5.6-c142 79.160924, 2017/07/13-01:06:39        ">
   <rdf:RDF xmlns:rdf="http://www.w3.org/1999/02/22-rdf-syntax-ns#">
      <rdf:Description rdf:about=""/>
   </rdf:RDF>
</x:xmpmeta>
                                                                                                    
                                                                                                    
                                                                                                    
                                                                                                    
                                                                                                    
                                                                                                    
                                                                                                    
                                                                                                    
                                                                                                    
                                                                                                    
                                                                                                    
                                                                                                    
                                                                                                    
                                                                                                    
                                                                                                    
                                                                                                    
                                                                                                    
                                                                                                    
                                                                                                    
                                                                                                    
                           
<?xpacket end="w"?></metadata>
<defs>
    <style>
      .cls-1 {
        fill: #3f92d3;
        fill-rule: evenodd;
      }
    </style>
  </defs>
  <path id="phone" class="cls-1" d="M954.475,3985.96a2.423,2.423,0,0,1-.741,2.12l-7.04,6.99a4.051,4.051,0,0,1-1.244.9,5.044,5.044,0,0,1-1.508.48c-0.035,0-.141.01-0.318,0.02a6.334,6.334,0,0,1-.688.03,24.588,24.588,0,0,1-3.255-.35,24.173,24.173,0,0,1-5.5-1.69,46.2,46.2,0,0,1-7.384-4.05,54.75,54.75,0,0,1-8.787-7.42,57.2,57.2,0,0,1-6.14-6.99,49.3,49.3,0,0,1-3.916-6.17,33.059,33.059,0,0,1-2.224-5.14,27.067,27.067,0,0,1-1-3.97,13.111,13.111,0,0,1-.212-2.62c0.035-.64.053-0.99,0.053-1.06a5.187,5.187,0,0,1,.476-1.51,3.879,3.879,0,0,1,.9-1.24l7.04-7.05a2.347,2.347,0,0,1,1.694-.74,1.943,1.943,0,0,1,1.217.4,3.585,3.585,0,0,1,.9.98l5.664,10.75a2.564,2.564,0,0,1,.264,1.85,3.322,3.322,0,0,1-.9,1.7l-2.593,2.59a0.9,0.9,0,0,0-.185.35,1.31,1.31,0,0,0-.08.39,9.581,9.581,0,0,0,.953,2.55,23.165,23.165,0,0,0,1.959,3.09,34.249,34.249,0,0,0,3.758,4.22,35.272,35.272,0,0,0,4.234,3.78,24.1,24.1,0,0,0,3.1,1.99,8.525,8.525,0,0,0,1.905.77l0.662,0.13a1.4,1.4,0,0,0,.344-0.08,0.751,0.751,0,0,0,.344-0.19l3.017-3.07a3.256,3.256,0,0,1,2.223-.84,2.788,2.788,0,0,1,1.429.31h0.053l10.216,6.04A2.66,2.66,0,0,1,954.475,3985.96Z" transform="translate(-904.5 -3946.5)"/>
</svg>
