<svg xmlns="http://www.w3.org/2000/svg" width="15" height="14" viewBox="0 0 15 14">
  <path  style="fill: #fff;" d="M2107.92,470.056a0.217,0.217,0,0,0-.24-0.035l-14.55,6.818a0.223,0.223,0,0,0-.13.2,0.227,0.227,0,0,0,.13.205l4.11,2.038a0.233,0.233,0,0,0,.24-0.022l4-3.018-3.14,3.261a0.231,0.231,0,0,0-.07.175l0.32,4.11a0.222,0.222,0,0,0,.15.2,0.243,0.243,0,0,0,.07.011,0.212,0.212,0,0,0,.17-0.078l2.19-2.555,2.7,1.3a0.207,0.207,0,0,0,.18,0,0.239,0.239,0,0,0,.13-0.14l3.81-12.24A0.216,0.216,0,0,0,2107.92,470.056Z" transform="translate(-2093 -470)"/>
</svg>
