<svg xmlns="http://www.w3.org/2000/svg" width="44.991" height="44.991" viewBox="0 0 44.991 44.991"><g transform="translate(-11.585 -11.584)"><path d="M37.383,27.579a9.806,9.806,0,1,0,9.806,9.8A9.817,9.817,0,0,0,37.383,27.579Zm0,18.13a8.325,8.325,0,1,1,8.325-8.325A8.335,8.335,0,0,1,37.383,45.709Z" transform="translate(-3.304 -3.305)" stroke="#000" stroke-width="0.6"/><rect width="1.481" height="5.38" transform="translate(33.339 11.884)" stroke="#000" stroke-width="0.6"/><rect width="5.38" height="1.481" transform="translate(45.446 21.666) rotate(-45)" stroke="#000" stroke-width="0.6"/><rect width="5.381" height="1.481" transform="translate(50.894 33.339)" stroke="#000" stroke-width="0.6"/><rect width="1.481" height="5.38" transform="translate(45.446 46.494) rotate(-45)" stroke="#000" stroke-width="0.6"/><rect width="1.481" height="5.381" transform="translate(33.339 50.894)" stroke="#000" stroke-width="0.6"/><rect width="5.38" height="1.481" transform="translate(17.862 49.251) rotate(-45)" stroke="#000" stroke-width="0.6"/><rect width="5.38" height="1.481" transform="translate(11.885 33.339)" stroke="#000" stroke-width="0.6"/><rect width="1.481" height="5.38" transform="matrix(0.707, -0.707, 0.707, 0.707, 17.862, 18.909)" stroke="#000" stroke-width="0.6"/></g></svg>