<svg version="1.1"  xmlns="http://www.w3.org/2000/svg"  x="0px" y="0px"
	 viewBox="0 0 457.207 457.207"  >
<path style="fill: #929292" d="M400.935,433.884c-15.042-45.427-26.503-83.395-35.713-113.901c-21.889-72.509-32.875-108.904-55.345-126.989l-0.231-0.166
	c-10.183-6.44-18.419-27.033-16.315-36.149l6.144-27.602c0.77-3.339,2.013-7.225,3.327-11.339
	c2.597-8.121,5.282-16.519,5.303-23.391c0.01-3.509-0.292-6.88-0.801-10.044c0.057,0.001,0.115,0.004,0.172,0.005
	c0.399,0.01,0.797,0.015,1.188,0.015c0.001,0,0.001,0,0.001,0c10.264,0,18.172-3.336,21.697-9.152
	c2.641-4.356,2.543-9.729-0.274-15.127c-5.717-10.953-5.721-29.301-0.008-40.064c3.039-5.726,2.12-9.517,0.814-11.688
	c-1.461-2.43-4.89-5.325-12.926-5.325c-4.136,0-8.929,0.768-14.246,2.283l-46.121,13.141c-11.327,3.228-21.287,8.742-27.921,14.906
	c-5.045-6.414-12.678-12.32-21.366-15.984c-14.589-6.152-40.712-13.597-58.232-16.596C147.313,0.24,144.67,0,142.227,0
	c-7.634,0-13.255,2.355-15.827,6.632c-1.543,2.566-2.671,6.965,0.716,13.347c5.713,10.764,5.709,29.111-0.008,40.065
	c-2.817,5.397-2.914,10.77-0.273,15.126c3.525,5.816,11.434,9.152,21.698,9.152c0.392,0,0.789-0.005,1.189-0.015
	c0.027-0.001,0.056-0.002,0.083-0.002c-0.46,3.099-0.726,6.458-0.715,10.042c0.021,6.874,2.707,15.274,5.304,23.397
	c1.314,4.111,2.556,7.995,3.322,11.313l6.151,27.644c2.053,8.89-1.233,23.105-16.614,36.345
	c-15.237,13.114-27.676,35.301-41.596,74.186C92.36,304.381,78.11,355.019,56.222,434.002c-0.807,2.914,1.797,5.288,4.801,6.133
	c0.622,0.17,83.658,17.072,154.675,17.072c2.799,0,5.57-0.027,8.268-0.081v0.021l2.562-0.063c0.689-0.016,3.449-0.016,4.14,0
	l2.562,0.046v-0.004c2.704,0.054,5.482,0.081,8.291,0.081c0.005,0,0.003,0,0.008,0c70.589,0,154.293-16.947,154.797-17.12
	C401.876,438.172,401.258,434.854,400.935,433.884z"/>

</svg>
