<svg id="x-icon" xmlns="http://www.w3.org/2000/svg" width="18" height="18" viewBox="0 0 18 18">
<defs>
    <style>


    </style>
  </defs>
  <circle style="fill: none; stroke: #ff4500 ;stroke-width: 1px;" id="base" class="cls-1" cx="9" cy="9" r="8.5"/>
  <path style="fill: #ff4500;" id="x-icon-2" data-name="x-icon" class="cls-2" d="M1729.32,256.487l2.51-2.5a0.591,0.591,0,0,0,0-.835,0.6,0.6,0,0,0-.84,0l-2.5,2.5-2.51-2.5a0.585,0.585,0,0,0-.83,0,0.591,0.591,0,0,0,0,.835l2.5,2.5-2.5,2.5a0.591,0.591,0,0,0,0,.835,0.585,0.585,0,0,0,.83,0l2.51-2.5,2.5,2.5a0.6,0.6,0,0,0,.84,0,0.591,0.591,0,0,0,0-.835Z" transform="translate(-1719.5 -247.5)"/>
</svg>
